<svg version="1.2" xmlns="http://www.w3.org/2000/svg" viewBox="0 0 1000 754" width="1000" height="754"><style>.a{fill:#2965e7}.b{fill:#f52c20}</style><path class="a" d="m998.3 309.7c0 0.6 0 1.2-0.2 1.9-0.7 0.7-1.2 1.3-1.6 2-1.8 3.8-3.5 7.6-5.5 11.3-8.3 15.4-18.7 29.1-31.9 40.7-8.5 7.5-17.6 14.2-27.8 19.3-10.8 5.4-21.8 9.9-34 12.3-2.9 0.6-5.4 1.1-8 1.8-0.1 0-0.3-0.1-0.6-0.1-2.8 0.5-5.3 1.1-7.8 1.7-0.1 0.1-0.3 0-0.6 0-1.6 0-2.8 0.1-4.2 0.1-1 0.3-1.7 0.5-2.4 0.7 0 0 0.1 0.1-0.3 0-2.1 0.3-3.8 0.6-5.6 0.8 0 0 0.1 0-0.3 0-4.9 0-9.4 0.1-14.2 0.2-5.9-0.1-11.3 0-17.1 0-2.8-0.1-5.3-0.2-7.7-0.1-1 0.1-1.8 0.8-2.8 1.6-4.2 10.7-8.3 21.3-12.8 31.6-11.1 25.8-23.9 50.7-37.9 74.9-10.6 18.1-21.9 35.9-34.4 52.7-8 10.6-16 21.3-24.6 31.4-8.5 10-17.4 19.6-26.7 28.9-10.1 10.1-20.4 20-31.1 29.4-8.4 7.3-17.5 13.9-26.4 20.7-11.6 9-24.1 16.9-36.8 24.1-10 5.7-20.1 11.2-30.5 16-12.5 5.8-25.3 11.2-38.2 16.1-15.9 6.1-32.4 10.4-49.2 14.1-3.2 0.5-6.2 1.1-9.4 1.8-1 0.4-1.9 0.6-3 0.8-2 0.3-3.6 0.5-5.4 0.9-0.9 0.3-1.5 0.5-2.4 0.6-2.5-0.2-4.8-0.3-6.9 1.7-3.3 0.4-6.3 0.7-9.7 1-2.5 0.3-4.7 0.6-6.8 0.9 0 0 0.1 0-0.3 0-2.4 0.3-4.4 0.6-6.4 0.9 0-0.1 0 0-0.4-0.1-3.3 0.2-6.3 0.5-9.7 0.7-2.8 0.1-5.2 0.2-8 0.2-5.8 0.3-11.2 0.5-16.6 0.9-1.7 0.1-3.3 0.5-4.9 0.7-12.4 0-24.7 0-37.8-0.1-4.2-0.3-7.6-0.5-11.5-0.6-2.9 0-5.4 0-8.1-0.2-1.3-0.3-2.3-0.5-3.6-0.7-6.3-0.6-12.2-1.1-18.5-1.7-1.8 0-3.3 0-4.7 0 0 0 0.1 0-0.2-0.1-2.2-0.4-4.1-0.6-6.3-0.7-0.7 0-1.2-0.1-1.9-0.3-4.5-1-8.6-1.8-13-2.7-2.3-0.4-4.2-1.9-6.6-0.5-3.5-0.6-6.7-1.1-9.8-1.9-18.1-4.4-36.2-9.3-53.6-16.2-21-8.4-41.1-18.2-60-30.7-19.1-12.7-36.8-26.8-52.7-43.3-17.5-18.2-32.6-38.1-45.4-59.8-11.9-20.1-21.4-41.5-28.9-63.6-4.3-12.4-7.4-25.1-10.8-37.9 0.4-3.2-0.4-6-2.1-8.8-0.3-1.1-0.5-2-0.5-3.1-0.2-2-0.5-3.7-0.9-5.8-0.7-3.6-0.2-7.1-2.6-10.2-0.1-1.3-0.1-2.4-0.1-3.8-0.3-2.3-0.6-4.2-0.9-6 0 0 0 0.1 0-0.3-0.3-2.7-0.6-5-0.8-7.3 0 0 0 0.1 0-0.3-0.3-2.9-0.6-5.5-0.9-8.1 0 0 0 0.1 0-0.3-0.2-3-0.5-5.5-0.8-8.1 0 0 0 0.1 0-0.3-0.2-3.9-0.5-7.3-0.8-10.8-0.1-0.1-0.1-0.3-0.1-0.8 0-4.1 0.2-7.8 0-11.4 0-1.3-0.8-2.4-1.3-3.7-0.1 0-0.3 0.1-0.3 0.1 0-7.6 0-15.2 0.4-23.2 32.1-0.4 63.9-0.4 95.6-0.4 9.6 0 19.1-0.2 29-0.2 13 0 25.6-0.1 38.7 0 1.5 0.1 2.6 0.2 3.7 0.2 19.2 0 38.3 0 57.5 0 6.4 0 12.9-0.2 19.7-0.2 5 0.1 9.5 0.2 14.1 0.2 1 0 2.1-0.5 3.3-0.9 0.4 0.1 0.5 0.1 1 0.3 1.5 0.3 2.7 0.6 3.9 0.6q37.4 0.1 74.7 0c1.5 0 3-0.6 4.8-0.9 1.3 0.3 2.2 0.7 3.1 0.7 8.7 0.1 17.3 0.1 25.9 0 1.2 0 2.4-0.6 3.9-0.7 2.4 0.4 4.5 0.9 6.6 0.9q27.1 0.1 54.2 0c7.4 0 14.8-0.1 22.6-0.1 6.2-0.1 12-0.2 18.2-0.2 5 0.1 9.6 0.3 14.2 0.3 13.4 0 26.8-0.1 40.5 0 0.5 0.1 0.7 0.2 1.2 0.4 4 0 7.8-0.1 12-0.2 4.8-0.2 9.2-0.2 14-0.3 3.3 0 6.2 0.1 9.1 0.1 9.8-0.1 19.5-0.2 29.4-0.2 0.6-0.2 1-0.4 1.3-0.6 0.1-0.1 0.1 0 0.4 0 0.6 0 0.8 0 1 0-0.1 0-0.1-0.1 0.3 0.1 8.3 0.2 16.3 0.3 24.7 0.3 7.1-0.4 13.9-0.9 21.1-1.3 1.7-0.2 3.1-0.4 4.9-0.6 3-0.4 5.6-0.8 8.6-1.1 2.6-0.2 4.8-0.4 7.4-0.7 1.6-0.1 2.8-0.1 4.4-0.2 2.4-0.3 4.4-0.4 6.4-0.8 1.2-0.2 2.3-0.8 3.6-1.4 1.4-0.2 2.5-0.2 4-0.2 2.1-0.3 3.8-0.5 5.9-0.8 2.4-0.7 4.5-1.3 6.6-1.9 0.8-0.2 1.7 0 2.5-0.3 2.3-0.8 4.5-2 6.9-2.7 11.7-3.4 22.9-8.1 33.3-14.5 0.8-0.5 1.5-1.2 2.3-1.9-6-7.8-10.6-16.1-14.5-24.8-4-9.2-7.2-18.7-9.3-28.9-0.3-2.5-0.6-4.6-0.9-7.1-0.3-1.8-0.6-3.2-0.9-4.7 0.1 0.1 0 0.1 0-0.2-0.2-2.4-0.5-4.5-0.8-6.5 0 0 0 0.1 0-0.3 0-10.1 0-19.8-0.1-29.8 0-1.3 0.1-2.3 0.4-3.6 0.7-3.3 1.1-6.3 1.7-9.6 0.3-2.5 0.5-4.8 0.6-7.4 0.2-1.4 0.5-2.5 0.8-3.6 2.3-10.5 5.6-20.7 9.7-30.6 5.1-12.3 11.8-23.7 19.4-34.7 2.1-3 4.7-5.8 7.3-8.8 2.8 1.9 5.4 3.5 7.9 5.3 17.5 12.4 33.7 26.4 47.1 43.3 5.9 7.5 11.5 15.1 15.5 24.2 0.3 0.8 0.6 1.3 0.9 1.8-0.1 0 0-0.1 0 0.2 0.3 0.6 0.6 1 0.8 1.5 0-0.1 0-0.1 0 0.1 0.3 0.7 0.6 1.1 0.8 1.6 0-0.1 0-0.1 0 0.2 0.3 0.6 0.6 1 0.9 1.4-0.1 0 0 0 0 0.2 0.3 0.7 0.5 1.1 0.8 1.5 0 0 0 0 0 0.2 0.3 0.7 0.6 1.1 0.8 1.5 0 0 0-0.1 0 0.3 2.6 9.5 5.2 18.6 7.8 27.8 0.2 0.7 0.7 1.4 1.3 2.5 0.2 0.7 0.2 1.2 0.2 2 0.3 3.3 0.6 6.3 1 9.6 0.1 1.4 0.3 2.6 0.6 3.8 0.2 0.1 0.5 0.3 0.7 0.5 0.3 0.8 0.4 1.3 0.6 2.2 1.8-0.7 3.4-1.4 5-1.9 3.3-1.1 6.6-2.3 9.9-3.1 4.7-1.2 9.5-2.1 14.3-3.2 0.1 0 0.2-0.1 0.7-0.1 1.9-0.3 3.5-0.6 5.1-0.9 0 0-0.1 0 0.3 0 3.4-0.2 6.4-0.4 9.8-0.7 6.7-0.1 13-0.1 19.6 0 1.8 0.3 3.3 0.5 4.8 0.7 5.1 0.8 10.2 1.7 15.8 2.5 3.3 0.4 6.2 0.6 9 1.3 14.3 3.8 27.5 10.3 40.5 17 4.7 2.4 9.2 5.2 13.8 7.8 0 1.8 0 3.5-0.1 5.7-0.2 0.6-0.3 0.7-0.3 0.8-0.1 0.1 0 0.3 0.1 0.4q0.1-0.1 0.3-0.1zm-614 425.7c2-0.1 4.1-0.3 7-0.6 3.1-0.1 6.1-0.2 9.2-0.3 2.9 0 5.9 0.2 9.3-1.4-55-19.6-98.3-53.5-131.6-100.4-1 0.3-1.8 0.5-2.6 0.8-3.8 1.7-7.6 3.5-11.4 5.1-14.4 5.9-29.1 10.8-44.3 14.1-10.2 2.2-20.6 3.6-31 4.3-9.2 0.6-18.5 0.6-27.8 0.3-7.7-0.3-15.5-1.5-23.3-2.2-3.3-0.4-6.6-1.6-10.7-0.9 2.3 2.1 4 3.9 5.9 5.5 14.8 12.4 30.6 23.4 47.6 32.6 10.6 5.8 21.5 10.9 32.6 15.6 18.7 7.7 38.2 13.4 58 17.8 8.6 1.9 17.2 3.5 25.9 4.8 8.4 1.2 16.8 1.9 25.3 2.6 10.3 0.9 20.5 1.8 30.8 2.2 10.1 0.3 20.2 0 31.1 0.1z"/><path class="b" d="m702.3 319.9c-0.2 4.3-3.5 6.1-6.7 7.9-10.5 6-21.1 12.1-31.7 18.1-7.5 4.4-14.9 8.8-22.4 13.2-2.5 1.4-5.1 2.8-8.2 4.3-1 0.4-1.5 0.7-2 1 0 0 0 0-0.2 0-0.9 0.6-1.6 1.2-2.3 1.7 0 0 0-0.1-0.3-0.1-0.6 0.3-1 0.6-1.4 0.9 0 0 0 0-0.2 0-0.7 0.3-1.1 0.6-1.5 0.9 0 0 0 0-0.2 0-0.5 0.3-0.8 0.6-1 0.8 0 0 0 0-0.4 0-0.6 0.4-1 0.6-1.3 0.9 0 0 0-0.1-0.3 0-0.5 0.3-0.7 0.5-1 0.8 0 0 0-0.1-0.2 0-0.7 0.3-1.1 0.6-1.5 0.9 0 0 0.1-0.1-0.1 0-0.4 0.3-0.6 0.5-0.7 0.8 0 0 0-0.1-0.3-0.1-0.6 0.3-1 0.6-1.4 0.9 0 0 0 0-0.3 0-0.6 0.4-1 0.8-1.4 1.2-3.1 1.7-6.2 3.4-9.7 5.4-0.6 0.5-0.9 0.7-1.2 1 0 0 0-0.1-0.3-0.1-0.6 0.2-0.9 0.5-1.3 0.7q-14.6 0.1-29.2 0.2c-2.9 0-5.8-0.1-9.3-0.3-1.3-0.6-2.1-0.9-3.2-1.4-2.2-1.2-4.2-2.3-6.1-3.4-14.7-8.5-29.3-17-44-25.4-9.2-5.3-18.5-10.5-28-15.5-0.4 1.3-0.6 2.4-0.6 3.5-0.1 13.9 0 27.7-0.1 41.7-0.1 0.1-0.1 0.4-0.1 0.4-5.8 0.1-11.6 0.2-17.8 0.1-0.5-0.3-0.7-0.6-0.7-1 0.1-17.1 0.1-33.8 0.1-50.6 0-1.6 0.6-3.4-1.5-4.6-6.6-3.7-13-7.2-19.3-10.8q-22.9-13.2-45.8-26.5c-7.3-4.2-14.5-8.4-21.9-12.9-1.1-1-2-1.1-2.2 0.3-0.2 1.2 0 2.4-0.1 4 0 28.9-0.1 57.4-0.1 85.9q0 4 0 7.9c0 1.4-0.1 2.9 1.6 3.5 0.1 0 0.1 0.1 0.2 0.3 0.5 0.3 0.8 0.5 1.3 0.7 1.6 0.9 3 1.7 4.4 2.6 0.1 0.2 0.3 0.4 0.3 0.4-1.2 0.3-2.4 0.9-3.6 0.9-8.6 0.1-17.2 0.1-25.9 0-0.9 0-1.8-0.4-3-0.8-0.3-0.2-0.2-0.6 0-0.7 1.8-0.9 3.3-1.7 5.2-2.6 0.6-0.3 0.9-0.6 1.3-1.2 0.1-5 0-9.8-0.2-15 0-13.9 0.1-27.5 0.2-41.4 0.1-5 0-9.8-0.2-14.7 0 0-0.2 0-0.2-0.4 0.1-2.5 0.1-4.6 0.1-6.7 0.1-5.5 0.2-11 0.4-16.8 0-1.6-0.1-3-0.4-4.4-0.1-0.1-0.5-0.2-0.8-0.2-1.4 0.2-2.5 0.3-3.5 0.8-10.6 6.1-21.3 12.2-31.9 18.3-17.7 10.1-35.4 20.2-53.4 30.5-0.6 2-1.3 3.7-1.3 5.4 0 16.4 0 32.8 0 49.2-1 0.4-2.1 0.9-3.1 0.9-4.6 0-9.1-0.1-14.1-0.4q-0.6-0.3-0.6-0.8c0-1.8 0-3.2 0-5 0-6 0-11.7 0-17.8 0.1-4.1 0.2-7.7 0.1-11.3-0.1-3.7 0.2-7.5-0.9-11.6-1 0.8-1.5 1.1-2.2 1.7-6.4 3.9-12.6 7.7-18.9 11.3-18.5 10.6-37 21.2-55.8 32-1.2 0.6-2.1 1.1-3 1.6-12.7 0-25.3 0.1-38.5-0.1-1.8-0.6-2.9-1-4.2-1.5-8.5-4.9-16.7-9.7-24.9-14.4-16.9-9.7-33.8-19.3-50.7-29-5-2.8-10-5.6-14.9-8.6-2.4-1.5-5.2-2.9-5.7-6.7 0-2.6 0-4.9 0-7.1q0-57.6 0-115.2c0-1.9-0.4-3.8-0.5-6 1.5-3.8 4.3-6 7.6-7.8q11.1-6.2 22.2-12.6c11.2-6.4 22.3-12.9 33.4-19.4 14.5-8.4 29.1-16.7 43.6-25 3-1.8 6.3-3.1 9.8-4.6 2-0.1 3.5-0.1 5.4 0 1.2 0.3 2.2 0.6 3.1 0.8 0 0 0 0 0.1 0.2 0.6 0.4 1.1 0.5 1.6 0.7-0.1 0-0.1-0.1 0.1 0.1 0.5 0.4 0.8 0.5 1.1 0.7 0 0 0-0.1 0.2 0.2 0.5 0.3 0.8 0.4 1.1 0.6 0 0 0 0 0.2 0.2 0.6 0.3 1 0.5 1.5 0.7 0 0-0.1-0.1 0.1 0.2 0.6 0.3 1.1 0.5 1.6 0.6-0.1 0-0.1 0 0 0.2 0.3 0.3 0.6 0.5 0.8 0.6 0 0 0 0 0.2 0.2 0.6 0.3 1.1 0.5 1.5 0.7 0 0 0 0 0.1 0.2 0.5 0.4 0.8 0.5 1.2 0.6-0.1 0-0.1 0 0.2 0.2 0.6 0.4 1 0.5 1.4 0.7 0 0 0-0.1 0.2 0.1 0.5 0.4 0.8 0.5 1.1 0.7 0 0 0-0.1 0.2 0.1 0.6 0.4 1 0.6 1.5 0.8 0 0-0.1-0.1 0.1 0.2 0.6 0.3 1.1 0.5 1.6 0.6-0.1 0-0.1 0 0 0.2 0.3 0.3 0.6 0.5 0.8 0.6 0 0 0 0 0.2 0.2 0.8 0.4 1.3 0.5 2.1 0.8 11.7 6.6 23.1 13.1 34.4 19.6 12.2 6.9 24.2 13.9 36.3 20.8 0.7 0.4 1.6 0.4 2.7 0.4 0.4-1.7 0.8-3.2 0.8-4.7q0.1-47.9 0.1-95.8c-0.1-1.5-0.4-3-0.6-4.8 1.2-3.8 3.4-6.2 6.7-8 15.2-8.7 30.3-17.4 45.5-26.2 12.7-7.3 25.5-14.7 38.2-22 8.2-4.7 16.4-9.4 24.7-14.1 2.2 0 4.5 0 7.2 0 0.5 0.5 0.4 1.2 0.7 1.4 6 3.2 12.1 6.2 18 9.6 22.9 12.9 45.7 26 68.5 39 7.2 4.1 14.5 8.4 21.7 12.6 2.6 1.5 4.9 3.3 5.9 7 0 33.8 0 67 0 100.1 0 1.4-0.1 2.9 0.1 4.2 0.2 0.7 0.8 1.4 1.2 2 9.6-5.6 19-11.2 28.6-16.8 11.4-6.6 22.8-13 34.2-19.6 10-5.7 20.1-11.1 29.8-17.2 4.9-3 9.4-2.2 13.8 0.1 7.2 3.6 14.1 7.9 21.2 11.9 2.3 1.3 4.6 2.6 6.9 3.9 25.5 14.7 51.1 29.2 76.7 43.7 3.5 1.9 6.7 4.2 7.7 9-0.2 1.8-0.5 3.1-0.5 4.3q0 41.2 0.1 82.4c0 1.4 0.3 2.8 0.5 4.4 0 0.6 0 0.8-0.1 1.3-0.3 8.4-0.3 16.5-0.4 24.7 0 0.5 0.3 1 0.6 1.9-0.1 3.3-0.3 6.3-0.4 9.2zm-92.4 35.1q0.4-0.4 0.8-0.7c0 0-0.1 0 0.6-0.1q0.5-0.4 1.1-0.8c0 0-0.1 0 0.5-0.1q0.4-0.4 0.7-0.7c0 0 0 0 0.5 0q0.6-0.4 1.2-0.8c0 0 0 0 0.5-0.1q0.4-0.5 0.8-0.8c0 0-0.1 0 0.5-0.1q0.4-0.4 0.8-0.7c0 0-0.1 0 0.5 0 0.4-0.4 0.8-0.8 1.6-1.6 21.1-12.1 42.2-24.2 63.8-36.9 0.1-1.3 0.5-2.7 0.5-4.1q0.1-45.5 0-91c0-1.6-0.5-3.2-0.8-4.9 0 0 0 0-0.2-0.5-0.6 0.1-1.3 0.1-2.2 0.6q-3.2 1.9-6.5 3.8c-23.1 13.3-46.3 26.6-69.4 40-3.9 2.2-7.6 4.7-12 7.4-0.2 1.5-0.6 3-0.6 4.5q0 25 0 50 0 21 0.1 42.1c0 1.4-0.8 3.1 1.4 4h0.3c0 0 0.2 0 0.8-0.1q0.4-0.4 0.8-0.7c0 0-0.1 0 0.5 0q1.4-0.9 2.8-1.7c0 0 0 0 0.5-0.1q0.6-0.4 1.2-0.7c0 0-0.1-0.1 0.4-0.2q0.2-0.4 0.5-0.6c0 0-0.1-0.1 0.4-0.1q0.6-0.4 1.2-0.8c0 0 0-0.1 0.4-0.2q0.3-0.3 0.5-0.6c0 0-0.1 0 0.5 0q0.6-0.5 1.2-0.9c0 0-0.1 0 0.5 0q0.6-0.4 1.2-0.8c0 0-0.1 0 0.4 0q0.6-0.5 1.2-0.9c0 0 0 0 0.5-0.1zm-175.2-127.6q-0.4 0.3-0.8 0.7c0 0 0.1 0-0.6 0.1q-0.5 0.4-1.1 0.7c0 0 0.1 0-0.5 0.2-0.3 0.3-0.5 0.7-1.2 1.3-4.4 2.5-8.8 4.9-13.2 7.4-8.5 4.9-17 9.7-26.1 14.6q-0.7 0.5-1.5 0.9c0 0 0.1 0-0.4 0.1q-0.4 0.4-0.8 0.7c0 0 0 0.1-0.6 0.2q-0.6 0.4-1.1 0.7c0 0 0 0-0.6 0.1-0.3 0.3-0.7 0.5-1.3 1.1 0 0.4-0.1 1 0.1 1.1 6 3.5 11.9 6.8 17.9 10.2 18.9 10.8 37.8 21.7 56.8 32.6 0.9 0.5 2 0.8 3.7 0.9 0.1-1.7 0.4-3.3 0.4-5q0-27.7 0-55.5c0-8.4 0-16.8 0-25.2 0-1.4 0.5-3.2-1.7-3.7-6 3.5-12.1 7-18.7 10.6q-0.6 0.5-1.1 0.8c0 0 0.1 0-0.5 0.1q-0.4 0.4-0.7 0.7c0 0 0 0-0.5 0q-0.6 0.5-1.2 0.9c0 0 0.1 0-0.5 0.1q-0.4 0.4-0.8 0.7c0 0 0.1 0-0.5 0.1q-0.4 0.4-0.7 0.7c0 0 0 0.1-0.5 0.1q-0.6 0.4-1.2 0.8c0 0 0 0-0.5 0.2zm-60.8 12.8c0.5-0.2 1-0.5 2-1q13.9-8.1 27.9-16.2c13.7-8 27.5-16 41.3-24 5.8-3.3 11.6-6.4 18.1-9.9 0.5-1.2 1.4-2.5 1.4-3.7 0-10.5-0.1-20.9 0-32.2-0.2-2.7-0.4-5.5-0.6-8.9 0-0.2 0-0.4 0.3-0.9-0.1-0.6-0.2-1.3-0.3-2.5 0-0.1 0-0.3 0.3-1-0.1-1.7-0.2-3.4-0.3-5.7 0-0.2 0-0.4 0.3-1.2-0.1-2.7-0.2-5.5-0.3-8.9 0-0.2 0-0.4 0.3-1.1q0.2-11.8 0.2-23.6c0-0.6-0.3-1.1-0.6-2.3 0-1.8 0-3.6-0.2-5.4-0.1-1.5-1-1.4-2.3-0.3-5.1 2.9-10.3 5.7-15.4 8.7-17.4 10.1-34.9 20.2-52.3 30.2-6.7 3.9-13.3 7.7-20.4 12-0.1 0.6-0.3 1.1-0.3 1.7 0 18.2 0 36.4 0 55.3-0.1 12.4-0.1 24.8-0.1 37.1 0 1.2 0.6 2.3 0.8 3.5 0 0 0-0.1 0.2 0.3zm-110.4-82.9c0 8.8-0.1 17.6 0 26.5 0.1 1.5 0.8 3.1 1.6 4.9 1 0.6 1.9 1.3 2.9 1.8q28.4 16.2 56.8 32.3c8.5 4.8 17 9.7 25.6 14.5 0.9 0.5 2.2 0.7 3.8 0.5 0-4.1 0.1-8.2 0.3-12.7 0.1-0.1 0.1-0.3 0.4-1.1-0.1-5-0.2-10.1-0.3-15.8 0-0.4 0-0.9 0.3-1.9 0.1-0.8 0.3-1.7 0.3-2.5q0-27.2 0-54.5c0-1.2-0.4-2.5-0.6-4.4-0.3-2-0.3-4.2-3.7-4.6-4.9-2.8-9.9-5.7-14.9-8.5q-22-12.7-44-25.4c-8.8-5.1-17.6-10.3-26.9-15.9-2.4 0-1.6 1.9-1.6 3 0 21 0 42 0 63.8zm310.5 198.9c0-29.6 0-59.2 0-88.8 0-1.3-0.7-2.6-1.4-4.3-1.1-0.8-2.2-1.8-3.3-2.5-18.2-10.5-36.4-21-54.5-31.5-10.1-5.9-20.2-11.9-30.8-18.2-2.5-0.1-1.6 1.8-1.6 2.9q-0.1 47.4 0 94.7c0 1.3 0.7 2.5 1.6 4.1 10.8 6.1 21.6 12.2 32.4 18.4q15.5 8.8 30.9 17.7c7.9 4.7 15.9 9.3 24.3 14.3 1.3 0.7 2.2 0.2 2.3-1.1 0.2-1.7 0-3.3 0.1-5.7zm-528.2-42.7c0.3 0.1 0.6 0.3 1.5 0.4 1.1 0.5 2.3 1 3.4 1.7q21.8 12.5 43.7 25c9.3 5.3 18.6 10.7 27.9 16.1 2.8 1.6 5.6 3.2 8.4 4.6 1.3 0.7 1.8 2.7 4.4 1.9 0.1-1.3 0.4-2.5 0.4-3.7q0-46.1 0-92.1c0-1.5-0.6-3-1.4-4.6-11.8-6.8-23.7-13.6-35.6-20.5-17.4-10-34.8-20-52.4-30.5-1-1.1-1.9-0.8-2.1 0.5-0.2 1.3-0.2 2.8-0.2 4.2q0 41.1 0 82.2 0 5.4 0 10.9c0 1.3-0.1 2.8 1.7 3.4 0 0 0 0.1 0.3 0.5zm219.4-10.8q7.3-4.1 14.6-8.2 26.7-15.3 53.4-30.6c3.7-2.1 7.4-4.2 11.6-6.6-1.6-1-2.7-1.9-3.9-2.5-2.9-1.7-5.9-3.2-8.8-4.9q-19.8-11.3-39.6-22.7c-8.7-5-17.4-10.1-26.4-15.6-1-0.7-2-0.8-2.3 0.5-0.3 1.2-0.3 2.5-0.3 3.7q0 13.5 0 26.9c0 18.5 0 37 0 55.5 0 1.6 0.8 3.2 1.7 4.5zm-20.1 9c0.2-1.4 0.6-2.7 0.6-4.1q0.1-45.1 0-90.2c0-1.7-0.5-3.3-0.8-4.9 0 0 0 0-0.1-0.5-0.5 0-1 0.1-1.8 0.6q-4 2.3-8 4.6c-14.7 8.5-29.5 17-44.2 25.5-12 6.8-24 13.6-36.5 21-0.1 1.1-0.2 2.2-0.2 3.3q-0.1 46.4 0 92.8c0 1.3 0.1 2.7 0.2 4.6 1-0.5 1.7-0.9 2.8-1.5 2.9-1.7 5.8-3.3 8.7-5 13.7-7.9 27.3-15.9 41-23.9 12.6-7.3 25.2-14.6 38.3-22.3zm-131.1-151c-19.6 11.3-39.2 22.6-59.1 34 30.1 17.3 59.8 34.4 90.1 51.8 29.4-16.9 59.4-34.2 89.7-51.6-0.9-0.7-1.4-1.2-2-1.5-6.9-4.1-13.7-8.1-20.6-12.1-14.4-8.3-28.9-16.5-43.4-24.8-7-4-14.1-8-21.1-12.1-2.1-1.2-3.7-0.9-5.8 0.3-9 5.3-18.1 10.5-27.8 16zm429.3 61.5c13.2 7.7 26.4 15.4 39.9 23.3 29.6-17.1 59.5-34.4 90-52-2.1-1.4-3.5-2.5-5.1-3.4-13.6-7.8-27.2-15.5-40.8-23.2q-19.7-11.3-39.3-22.6c-2.7-1.5-5-2.5-8.1-0.6-14.2 8.4-28.6 16.5-42.9 24.8q-19.1 11-38.1 22c-1.6 0.9-3 1.9-4.8 3.1 16.5 9.6 32.6 19 49.2 28.6zm-211.2-116.2q16 9.2 32 18.4c29.7-17.2 59.4-34.3 89.4-51.5-1.5-1-2.7-1.9-4-2.6-27.3-15.6-54.7-31.2-82-46.9-2.8-1.7-5-1.6-7.7 0.1-7.3 4.4-14.7 8.5-22.1 12.8-11.5 6.7-23 13.4-34.5 20-8.4 4.8-16.8 9.5-25.2 14.3-1.1 0.6-2.2 1.4-3.6 2.2 6.9 4 13.5 7.7 20 11.5 12.4 7.1 24.8 14.2 37.7 21.7z"/></svg>